<svg xmlns="http://www.w3.org/2000/svg" xmlns:xlink="http://www.w3.org/1999/xlink" xmlns:svg="http://www.w3.org/2000/svg" width="130" height="130">

<defs id="svgEditorDefs">
<linearGradient gradientUnits="objectBoundingBox" id="lgrd2-black-white" spreadMethod="pad" x1="10%" x2="90%" y1="99.6%" y2="1%">
<stop offset="0%" stop-color="#404040"/>
<stop offset="100%" stop-color="#CCCCCC"/>
</linearGradient>
</defs>

<g>
<path d="M3.7980000972747803 80h12.33799934387207c1.5389995574951172 0 2.9 0.9 3.5 2.35400390625c0.006000518798828125 0 0 0 0 0.0469970703125c0.5860004425048828 1.4 0.3 3 -0.8 4.1309967041015625l-8.725000381469727 8.724998474121094c-1.4829998016357422 1.5 -1.5 3.9 0 5.371002197265625l17.256000518798828 17.256004333496094c1.4829998016357422 1.5 3.9 1.5 5.4 0l8.7239990234375 -8.724998474121094c1.0849990844726562 -1.1 2.7 -1.4 4.1 -0.819000244140625c0.01599884033203125 0 0 0 0 0.0189971923828125c1.4220008850097656 0.6 2.4 2 2.4 3.5049972534179688v12.337997436523438c0 2.1 1.7 3.8 3.8 3.7979965209960938h24.403995513916016c2.0979995727539062 0 3.8 -1.7 3.8 -3.7979965209960938v-12.337997436523438c0 -1.5 0.9 -2.9 2.4 -3.5049972534179688c0.01599884033203125 -0 0 -0 0 -0.0189971923828125c1.417999267578125 -0.6 3 -0.3 4.1 0.819000244140625l8.7239990234375 8.724998474121094c1.4840011596679688 1.5 3.9 1.5 5.4 0l17.255996704101562 -17.255996704101562c1.4840011596679688 -1.5 1.5 -3.9 0 -5.371002197265625l-8.724998474121094 -8.724998474121094c-1.0849990844726562 -1.1 -1.4 -2.7 -0.8 -4.1309967041015625c0.0059967041015625 -0 0 -0 0 -0.0469970703125c0.58599853515625 -1.4 2 -2.4 3.5 -2.3539962768554688h12.337997436523438c2.0979995727539062 0 3.8 -1.7 3.8 -3.7979965209960938v-24.40399932861328c0 -2.1 -1.7 -3.8 -3.8 -3.7980003356933594h-12.337997436523438c-1.53900146484375 0 -2.9 -0.9 -3.5 -2.3540000915527344c-0.0059967041015625 -0 -0 -0 -0 -0.047000885009765625c-0.58599853515625 -1.4 -0.3 -3 0.8 -4.131000518798828l8.724998474121094 -8.7239990234375c1.4840011596679688 -1.5 1.5 -3.9 0 -5.371999740600586l-17.255996704101562 -17.256000518798828c-1.483001708984375 -1.5 -3.9 -1.5 -5.4 0l-8.7239990234375 8.725000381469727c-1.0849990844726562 1.1 -2.7 1.4 -4.1 0.819000244140625c-0.01599884033203125 -0 -0 -0 -0 -0.020000457763671875c-1.4219970703125 -0.6 -2.4 -2 -2.4 -3.503999710083008v-12.338000297546387c0 -2.1 -1.7 -3.8 -3.8 -3.7980000972747803h-24.40399932861328c-2.0979995727539062 0 -3.8 1.7 -3.8 3.7980000972747803v12.338000297546387c0 1.5 -0.9 2.9 -2.4 3.5049991607666016c-0.01599884033203125 0 -0 0 -0 0.020000457763671875c-1.417999267578125 0.6 -3 0.3 -4.1 -0.819000244140625l-8.7239990234375 -8.725000381469727c-1.4829998016357422 -1.5 -3.9 -1.5 -5.4 0l-17.256000518798828 17.256000518798828c-1.4829998016357422 1.5 -1.5 3.9 0 5.371000289916992l8.725000381469727 8.7239990234375c1.0839996337890625 1.1 1.4 2.7 0.8 4.131000518798828c-0.006000518798828125 0 -0 0 -0 0.047000885009765625c-0.5849990844726562 1.4 -2 2.4 -3.5 2.3530006408691406h-12.338000297546387c-2.0980000495910645 0 -3.8 1.7 -3.8 3.7980003356933594v24.40399932861328c0 2.1 1.7 3.8 3.8 3.7979965209960938ZM64 32c17.673004150390625 0 32 14.3 32 32s-14.326995849609375 32 -32 32s-32 -14.3 -32 -32s14.32699966430664 -32 32 -32Z" fill="url(#lgrd2-black-white)" style="stroke: none;"/>
</g>
</svg>
