<?xml version="1.0" encoding="UTF-8" standalone="no"?>
<svg xmlns:svg="http://www.w3.org/2000/svg" xmlns="http://www.w3.org/2000/svg" version="1.1" viewBox="0.0 0.0 377.0 377.0" fill="none" stroke="none" stroke-linecap="square" stroke-miterlimit="10" width="100%" height="100%"><clipPath><path d="m0 0l377 0 0 377 -377 0 0-377z" clip-rule="nonzero"/></clipPath><g clip-path="url(#p.0)"><path d="m4.2230131 62.5065 368.7140969 0 0 226.68778-368.7140969 0z" fill="#f3f3f3"/><path fill="#000000" fill-opacity="0.0" d="m0 0l377.95276 0 0 377.95276 -377.95276 0z" fill-rule="nonzero"/><path d="m4.2230131 62.5065 368.7140969 0 0 226.68778-368.7140969 0z" style="stroke-linejoin:round;stroke-width:2.19600725;stroke:#000"/><path d="m28.716457 179.45381 0 0c0-11.52299 9.455777-20.86423 21.120076-20.86423l0 0c5.601388 0 10.973367 2.19819 14.93415 6.11099 3.960776 3.9128 6.185926 9.21969 6.185926 14.75324l0 0c0 11.52298-9.455782 20.8642-21.120076 20.8642l0 0c-11.664298 0-21.120075-9.34122-21.120075-20.8642zM98.717937 179.45381l0 0M98.717937 179.45381l0 0M98.717937 179.45381l0 0M98.717937 179.45381l0 0M98.717937 179.45381l0 0c0-11.52299 9.455773-20.86423 21.120073-20.86423l0 0c5.60139 0 10.97336 2.19819 14.93415 6.11099 3.96078 3.9128 6.18592 9.21969 6.18592 14.75324l0 0c0 11.52298-9.45577 20.8642-21.12007 20.8642l0 0c-11.6643 0-21.120072-9.34122-21.120072-20.8642zM168.71941 179.45381l0 0c0-11.52299 9.45577-20.86423 21.12007-20.86423l0 0c5.6014 0 10.97337 2.19819 14.93416 6.11099 3.96078 3.9128 6.18592 9.21969 6.18592 14.75324l0 0c0 11.52298-9.45579 20.8642-21.12008 20.8642l0 0c-11.6643 0-21.12007-9.34122-21.12007-20.8642zM238.72089 179.45381l0 0c0-11.52299 9.45577-20.86423 21.12007-20.86423l0 0c5.6014 0 10.97337 2.19819 14.93416 6.11099 3.96078 3.9128 6.18592 9.21969 6.18592 14.75324l0 0c0 11.52298-9.45579 20.8642-21.12008 20.8642l0 0c-11.6643 0-21.12007-9.34122-21.12007-20.8642z" fill="#000"/><path d="m285.11365 104.57292 0 149.76175" fill="none"/><path d="m329.84246 104.57292 0 149.76175" style="stroke-linejoin:round;stroke-width:4.3920145;stroke:#000"/></g></svg>
