<svg 
    viewBox="0 0 920 680"
    xmlns="http://www.w3.org/2000/svg">
<!-- Copyright Torbjorn Tyridal 2021

    This file is part of Masterpassword for Firefox.

    Foobar is free software: you can redistribute it and/or modify
    it under the terms of the GNU General Public License as published by
    the Free Software Foundation, either version 3 of the License, or
    (at your option) any later version.

    Foobar is distributed in the hope that it will be useful,
    but WITHOUT ANY WARRANTY; without even the implied warranty of
    MERCHANTABILITY or FITNESS FOR A PARTICULAR PURPOSE.  See the
    GNU General Public License for more details.

    You should have received a copy of the GNU General Public License
    along with Foobar.  If not, see <http://www.gnu.org/licenses/>.
-->
<defs>
    <linearGradient id="grad" x1="0" x2="0" y1="0" y2="100%">'
        <stop offset="0%" stop-color="#373d47"/>
        <stop offset="100%" stop-color="#484f5d"/>
      </linearGradient>
      <clipPath><path d="m0 0l377 0 0 377 -377 0 0-377z" clip-rule="nonzero"/></clipPath>
      <g id="icon" clip-path="url(#p.0)">
      <path d="m4.2230131 62.5065 368.7140969 0 0 226.68778-368.7140969 0z" fill="#f3f3f3"/>
      <path fill="#000000" fill-opacity="0.0" d="m0 0l377.95276 0 0 377.95276 -377.95276 0z" fill-rule="nonzero"/>
      <path d="m4.2230131 62.5065 368.7140969 0 0 226.68778-368.7140969 0z" 
            style="stroke-linejoin:round;stroke-width:2.19600725;stroke:#000"/>
      <path d="m28.716457 179.45381 0 0c0-11.52299 9.455777-20.86423 
              21.120076-20.86423l0 0c5.601388 0 10.973367 2.19819 14.93415 6.11099 
              3.960776 3.9128 6.185926 9.21969 6.185926 14.75324l0 0c0 11.52298-9.455782 
              20.8642-21.120076 20.8642l0 0c-11.664298 0-21.120075-9.34122-21.120075-20.8642zM98.717937 
              179.45381l0 0M98.717937 179.45381l0 0M98.717937 179.45381l0 0M98.717937 179.45381l0 
              0M98.717937 179.45381l0 0c0-11.52299 9.455773-20.86423 21.120073-20.86423l0 0c5.60139 
              0 10.97336 2.19819 14.93415 6.11099 3.96078 3.9128 6.18592 9.21969 6.18592 14.75324l0 
              0c0 11.52298-9.45577 20.8642-21.12007 20.8642l0 0c-11.6643 
              0-21.120072-9.34122-21.120072-20.8642zM168.71941 179.45381l0 0c0-11.52299
              9.45577-20.86423 21.12007-20.86423l0 0c5.6014 0 10.97337 2.19819 14.93416
              6.11099 3.96078 3.9128 6.18592 9.21969 6.18592 14.75324l0 0c0 11.52298-9.45579
              20.8642-21.12008 20.8642l0 0c-11.6643 0-21.12007-9.34122-21.12007-20.8642zM238.72089
              179.45381l0 0c0-11.52299 9.45577-20.86423 21.12007-20.86423l0 0c5.6014 0 
              10.97337 2.19819 14.93416 6.11099 3.96078 3.9128 6.18592 9.21969 6.18592
              14.75324l0 0c0 11.52298-9.45579 20.8642-21.12008 20.8642l0 
              0c-11.6643 0-21.12007-9.34122-21.12007-20.8642z" 
            fill="#000"/>
        <path d="m285.11365 104.57292 0 149.76175" fill="none"/>
        <path d="m329.84246 104.57292 0 149.76175" style="stroke-linejoin:round;stroke-width:4.3920145;stroke:#000"/>
        </g>
</defs>
<style type="text/css">
@font-face {
    font-family: "Liberation Sans"; src:
    url("https://db.onlinewebfonts.com/t/4ce6215c47b0f14c8b89bb15c9914150.woff") format("woff"),
    url("https://db.onlinewebfonts.com/t/4ce6215c47b0f14c8b89bb15c9914150.woff2") format("woff2"),
    url("https://db.onlinewebfonts.com/t/4ce6215c47b0f14c8b89bb15c9914150.svg#Liberation Sans") format("svg");
}

#icon {
 fill:none;
 stroke:none;
 stroke-linecap:square;
 stroke-miterlimit:10;
}

svg {
    font-size:65px;
}

text {
    font-family: "Liberation Sans", sans-serif;
    fill: #ffffff;
    text-align: center;
    text-anchor:middle;
    shape-rendering: auto;
    font-weight: 350;
}
text.logo {
    font-size: 90px;
    font-weight: 400;
}
</style>
<filter id="blurMe">
    <feGaussianBlur in="SourceGraphic" stdDeviation="0.8" />
  </filter>

<rect x="0" y="0" width="100%" height="100%" fill="url(#grad)"/>
<g>
<text x="50%" y="120" class="logo">MasterPassword</text>
<use href="#icon" x="50%" y="116" height="370"  transform="translate(-185,0)"></use>
<!--image x="50%" y="116" height="370" href="icon.svg" transform="translate(-185,0)"/-->
<text x="50%" y="508">All your passwords, secure</text>
</g>
</svg>
